/* XPM */
static xpm_row_t const body_snake[] = {
/* columns rows colors chars-per-pixel */
"48 48 14 1 ",
"  c #1E5B33",
". c #1E5C33",
"X c #1E5D34",
"o c #1F5E34",
"O c #1F5E35",
"+ c #1F5F35",
"@ c #1F6035",
"# c #1F6036",
"$ c #206136",
"% c #206337",
"& c #216438",
"* c #216639",
"= c #226739",
"- c #22683A",
/* pixels */
"==###XX  .o$$$%---##X. .Xo$%---%%$..XXXo$$==----",
"==###X    oo#=--##$#.. .Xo$%=$-%$$#....X$$#=%---",
"=###X   .X.#%$-$%%#@X  XXoo%%%-%$$XX.X X$$%-----",
"===#XX  ...$%--=%%$.    Xo$$---%$XX.  .X#$$=----",
"--%#oX.   X$#--#-%$..X  XX$$%--%$#.X   X.$%-----",
"=%%#oX  .XXo##-==%$.X.  ..#$%--%$#.X  XXX$%%----",
"=$$$o.  X.##--===%$@X.. XX$X$--$$$X.    #.$-%---",
"--$$o.  ..####=-=%$$XX  .Xo$-%--$$o.   X.$$%----",
"--%#oX.  Xoo#==--%$.X   X X$%%--$$XXX   #XX&#=--",
"-%%#XX.   X$#=#--%%#XX   X.$%%$==$$X   XX##=----",
"-%%$XX    oo#===%-$$XX    X$%%--=#&XX   X#X-----",
"--%#. .  XXo#===-$$$X X  XXX%%-%&$XX X   X#--#--",
"==%$#.   XX$$$-=--%$XXX  . $%%-%=X#X     Xo$&==-",
"-$-$X.    XX#=---%%$XXX  .XX%---=&##XX   XX===#=",
"-=$$$$    X$%-=---%%$X    X$$%$-=$&oX    XX&#-=-",
"-=%$X.   XXo$%$-%-%$XXX ..#$$$=-=&oXXX   X$X===-",
"==&ooXX XX#+-----=%$XX    oo&&==-=##XX  XXoo#==-",
"==&&#X   XXX##-#-=%$&X    XXX&==#=##XX    X$#---",
"===Xo     X##---=-%=XX   XX$#++-#=$#XX   Xoo#-==",
"==&#o#    ###--#=%=%XX    XX&==-===#XX    X$X===",
"==X+XXX   XX#==-===Xo&    XX+X=-==$$oXX   X$$$==",
"==&&oo    X##=#-==-XXXX   X&&======ooX   XXo#===",
"==&+XX    X##=#==&=&oXX  XXX+#==--$$oX   XXo$%-=",
"=--#$o   XXX#--====X& XX  XX&=&=--$$$XX   XX$$--",
"=++#+X    XX$====-%%oX.  XXo&$&====###     ++-==",
"=-&=++    X$##===-%%oo.   XoX&====%##XX  X X#++=",
"===#+X    X$==#====#$X.   XX###-===##X.X X +#-&=",
"-=#+++    XX#==-==$$oo.    X#=----=#X...  ++#+&=",
"===&+X    X$X===-=-=XoX.  XX#===---=&X X  XX++-=",
"=-+#XX    XX#-#=-==$$o.. XXX#$==-#-$XXX    X+&-=",
"==&++   X ##=&==-=$$XXX    X#-==-==&#X X  XX++--",
"-+=+++  XX#XX&===-%-#X   X####X====&$oXX   X+=#-",
"-== +     X++=--==-%$o.   Xo$$----=%$XX   XXX$&=",
"---+++X  XX+##=-===%oo.    o$%%---=%$$oX   Xo&#=",
"&-&++    XX+X&==---%$o.  XXo$%=--==%#XXX   XX=-=",
"--&*++    XX+&==%-%%oo..   o$%%---=%$oX   XXX##=",
"&-&+++     +=--=-=$%XX    .o$$%--=$-$oX   Xo$&&=",
"-#&=++   XX+++==-=%%$XXX . o$$-%-=-%X$X    XX&X=",
"---#+XX    ++++---%%$.X   .o$%%--==%=X$    X##==",
"--=#+XX   ++++=---%$$X X  .o#$%--==%X$XX  $X##=#",
"-=-#$X     +X#&-===##X.   XX##=-===&&oX    Xo+#-",
"-=-=$XXX  XXX##-====##     X##=-===$ooXX  XXo&#-",
"--=#$XX   XX#&=-====XX.    X##=#===&&XX    X##==",
"--&&$oXX   XX##===-#$$$  XXXX=-X===$$$XX   X##-#",
"-==#$$X    X$$$=-#-#$oXX   X#=&==--=$XXX   X#X==",
"-==-$XXX  XXX&===--=$oX   XX#$&=-#==$XXX  XX#&#=",
"===%$$XX  XXX#$====&$oXX   X$X-X===#o$XX  XXX&-=",
"====&XX    X$&X=-=&$$$X   XXX$-=#===&XX   XX###="
};
