/* XPM */
static xpm_row_t const brick[] = {
/* columns rows colors chars-per-pixel */
"48 48 76 1 ",
"  c #2E190B",
". c #341B0D",
"X c #3B1E0F",
"o c #3E200F",
"O c #3F2010",
"+ c #442211",
"@ c #4B2513",
"# c #4F2815",
"$ c #502714",
"% c #542916",
"& c #592B17",
"* c #5D2D18",
"= c #612F19",
"- c #65301A",
"; c #6C331C",
": c #73361E",
"> c #76381F",
", c #78381F",
"< c #773820",
"1 c #7B3A21",
"2 c #843D23",
"3 c #883F24",
"4 c #874025",
"5 c #8C4126",
"6 c #924327",
"7 c #954529",
"8 c #9A4629",
"9 c #9E482B",
"0 c #A44B2C",
"q c #AB4E2E",
"w c #AF502F",
"e c #B1502F",
"r c #AD4F30",
"t c #AF5030",
"y c #B25130",
"u c #B45131",
"i c #B75332",
"p c #B95332",
"a c #BB5533",
"s c #BB5534",
"d c #BE5634",
"f c #BF5634",
"g c #C15734",
"h c #C35735",
"j c #C35836",
"k c #C45835",
"l c #C75A36",
"z c #C75A37",
"x c #C85A37",
"c c #CB5B37",
"v c #CB5B38",
"b c #CC5B38",
"n c #CB5C38",
"m c #CC5C38",
"M c #CE5C38",
"N c #D05D39",
"B c #D55F3A",
"V c #D45F3B",
"C c #D5603B",
"Z c #D6603B",
"A c #D7603C",
"S c #D9613B",
"D c #D8613C",
"F c #DB623C",
"G c #DB623D",
"H c #DD633D",
"J c #DE643D",
"K c #E0643E",
"L c #E0653E",
"P c #E1653E",
"I c #E2653F",
"U c #E56740",
"Y c #E76740",
"T c #E66840",
"R c #EA6941",
"E c #F86F46",
/* pixels */
"xxxxxm9.rDxbzzxxxxxxxmc-1Zvzzvzzxxxxxbd:*Jzxvxxx",
"mmmNNd:.&Dbbvvbmxzxxmx9@+xNvvvvvmmmmNx0&.qSxbmmm",
"yuyq6=.X.-uyudp077900,@..%dvpppyuuyq04&..+0eeqqr",
"+XX+Xo+++o+$#+++@+X@+O+++o+$#@++++X++++++o+@@+++",
".%aNmbbmmNmxp0-..+qxakjzzbxzsq3X.X7zggxxxzgxmx8+",
"#ZHbmbvbxmmmmNg&XpPxmxbbxbcxvmH4 9HbvxxmxxbmNNDy",
"7Hzzxxvzxxxxxxx1-Szxxxxxxxxxxzm0%Dxxxxxxxxxxvzxv",
"9Dzxxxxzxxxxxxx2:Szzxxxxxxxxxzv0=Azxxxxxxxxxxxna",
">Dzxxxxxxxxxzbx4%Zxxxxxxxxxxxxx0@gbxxxxxxxxxxxmg",
"+aNxxxxxxcxcvmg,.eZxcxxxxxxNcMx5.3Dcvmcmcccxbxxq",
".%uxxcNmcxxxd02+.@umzzxxxxxgw05$XX9zjzjueedduq5&",
"X.X$*----*$$@X ...X%&&-==&$$@+.....@%&***%@@@+..",
"09983+ . &900qyr00009:.. +70000qqq007:X..X50990q",
"mmmZD0@.-PSNBSBNNNmADZ5.$ZPNcNNBNBDBBm6+XpUSNbNN",
"xxxxxx2XaNxxxxzzxznzxxg@0Sxxxxxxxxxxxxd*1Dzxxxxx",
"xxxxxm9+kxxxxxxxxzzvxxc-uZxxxxxxxxxxxmz:5Nxxxxxx",
"xxxxmN0XxBxxxxxxxxxxvxx-0Hzzzzzzxxxxxmz:1Hzzzxxx",
"xccxvx5 3PxxxxxxxxxxmNz%-Pxbzvzvxxxxmmg;+Nxxxvxx",
"cxzau7$.XqFNMcmNmNNbu01O.8ImmmmmNNNmzy5+.:cNbbvv",
",;-=@.....,,,,,,111-&+... -,1122112:*@....$::121",
"..*,123432:>:=X.. %1<12111>1<-+ . +1112223111;@.",
".7SZBHIPPZNNZSd+.1HDNNBNAcZSURz#.*mPSBBHHHKUPUB1",
">PzzzzzzzzbvxxN;@NnzvzzvvzxzzxN6odmzbzxzxzkkzzbd",
"8Nxxxzzxzxzzxzx3;Bxxvzzzzzxxzvm0=Nxxzzxxbzvzzzvd",
"4Dzvzxxxxxxxxxx2-Bxxzzzzxxxxxxm0&Axzxxxxxxxxxxxz",
"&Zzzzzxxxxxxxcx5+xmxxzvnxxxxbxmqOtNvxxxxxxxxxxxz",
".8JnNmmmmmNmNNe=.:NNmmnmmmmmdzz2.&vNmmmNNmxxbNx5",
"..4wqw0008777,@...=599878984,:%.. &90rww083352*X",
"*&#$+.XoX.#&&%&***%%@O.OX.@&*&&***%%%+.OX.+*&%%*",
"NbxvN8o.X0PPDHDZNmDPRB;..5AmBDJSNmNNmn3..;xBmmBD",
"xxzxbD< 9TnxxxzzxxxNPEP+1PnxxxxxxxxxvvA&%Dcxxxxx",
"xxvzvb8oZxxxxxxxxxxxznm-yNxxxxxxxxxxxzm:6Zxxxxxx",
"xxxxxm0+ZNzzxxxxzxxxxzN:0mvxxxxxxxxxxxm26Dzzzxxx",
"xxxxxN0.yPzxxxxxzvxxxxz-2BzxzzxxxxxxzvN3=Jzvxxxx",
"mmbbmm1.*TNxxxvvbmmmbNu@+dNvvvvbvvvmvmm-.yAmvbvv",
"0qu07;X..:Nbxxduyyyur8&..&ygapsdddpuy7=..+9uppdp",
"@+o+oX+++X@*%@+@++X++XX++X+%#++@@+O++OX++Oo@@@++",
".@exxcmmnvjuqe>..+qvkdgzmvjudu3...6mxjgddzjssu6+",
"@NHmmmmmmmvmmBP;.aTmbnbbmmvnbNR0 9RBmmmvvvvmmZU0",
"7Jzxzxxxzvzzvzv2=Zzxxxxxvvvzxzmd%Pmvxxxxzzzzvzb0",
"0Dxxxxxxzxxxxxb4;Bzzzvxxxxxxxzv8-Jzzxxxxxxxxxxx0",
"1Pzxxxxxxxxxxxx5&Nvzzzxxxxxzxzv0@nmzxxxxxxxxxxx0",
"+xNxxxxxxvxxxmd,.yDzzvvzxmvxxvm8.5Jbxxxxxxxxxcz9",
" &dmbbbvvmmgq0,+ @rjbmvzgkgzgp7$.X0cgzgzzxxzaw6&",
"&$=1:=;;-=,>:=%%&%%<1;--*%-,,-%%%%&>:=&--&-,:-*$",
"HDNmk3...5gxcBDSZBmvdt& .1mvmDUYDDNmza,. -xxxxNB",
"zzmvmP1 6PxxxxxxxxzvnAuX:PmnxxbxxxxxxNP*$HBxxxxx",
"zvzzxx8+mcxxxxxxzzzzznv&8mzvxxxxxxxxzzM:4Zxxxxxx"
};
