/* XPM */
static xpm_row_t const broken_xpm[] = {
/* columns rows colors chars-per-pixel */
"48 48 91 1 ",
"  c #33170F",
". c #35180F",
"X c #39190F",
"o c #351710",
"O c #361810",
"+ c #3C1B11",
"@ c #431D12",
"# c #481F13",
"$ c #4C2114",
"% c #532415",
"& c #5B2716",
"* c #5E2817",
"= c #5E2818",
"- c #602717",
"; c #622917",
": c #652B18",
"> c #6B2D19",
", c #702F1A",
"< c #6F301A",
"1 c #74311B",
"2 c #7B341C",
"3 c #82361D",
"4 c #84391E",
"5 c #8B3A1F",
"6 c #903C1F",
"7 c #8D3C20",
"8 c #933D21",
"9 c #993F21",
"0 c #964122",
"q c #9C4223",
"w c #A34523",
"e c #AC4625",
"r c #A44823",
"t c #AB4B24",
"y c #B34B25",
"u c #BB4D27",
"i c #BD4D28",
"p c #B55125",
"a c #BA5325",
"s c #BF5825",
"d c #C14F29",
"f c #C45527",
"g c #C95727",
"h c #C25925",
"j c #C35A26",
"k c #C65A25",
"l c #C65C25",
"z c #CA5927",
"x c #C95E26",
"c c #CF5F27",
"v c #C15028",
"b c #C25028",
"n c #C65328",
"m c #C75229",
"M c #C75528",
"N c #C8522A",
"B c #CA5429",
"V c #CC542A",
"C c #C65828",
"Z c #CD5928",
"A c #CD5A28",
"S c #D05929",
"D c #D05B28",
"F c #D15E28",
"G c #D55E29",
"H c #CE6126",
"J c #CF6226",
"K c #D06125",
"L c #D16327",
"P c #D36526",
"I c #D46426",
"U c #D46427",
"Y c #D86527",
"T c #D86627",
"R c #D96826",
"E c #D86827",
"W c #DD6A27",
"Q c #DF6C27",
"! c #D66028",
"~ c #D96328",
"^ c #DB6328",
"/ c #DC6728",
"( c #DF6928",
") c #E06C27",
"_ c #E16C27",
"` c #E26E27",
"' c #E36E27",
"] c #E46E27",
"[ c #E16B28",
"{ c #E26C28",
"} c #E56F28",
/* pixels */
")Ip8%+++++++@+$,wfF)[Q{QRr:++++O1vr>++++>BY[[WW[",
"p7;@++++@++++<vVSSzhPRlatq1+++O>dYa0$++++wA(W[RL",
"&+O+++++++++++18,&@@&:11&$O++o*iK(t>+++++%iGstr4",
"O++++++@+++++++O +++OOO+O++++*yA)h;@$%+++O5v02&+",
"++++++++++++O+++++++@+++++++O5BnWIrqt3++++$1$+O+",
"+O+O++++++$2;$+O+@=27#+++@+++@wdf{QWa%O++++OX+O+",
"====&==@+o1Cat0440aYt@+++++++O@edz)k>++++++++%;;",
"ppttrq7@++6[})QIKR{}r+++@+@+++O%ydz0++@++++@X4zh",
")))Rt8$++@yW[~GG^^/W0++++++++++O*id:.++++++++w[)",
"WWWt8%O+O%Baw4136qeu4+++++++++@+O,6O@X++++++Xe[W",
")]xq:O+++$>#+OoO+X+#$++@++%+@+++++++.%>++++@@u))",
"xKp1++++++o+++++++++++++O;7@+++++++O:97O $3*%nIS",
"@#&@++++++++++O++++++++.>r8@++++++O2na4@;0t%#,:%",
"++O++++$++++O%7$++++++.>dfq%O+@++@9BYQq5rap#o.OX",
"+++@++#8:O+X>0r:+++++o>dA{p% ++++%yVE{RYY{r@+++X",
"++++++8y8%$40rC7+++@+@qngWE021$+++$wMYQ(QQq+++@@",
"o+++o,nYa070rY)r%++++++>yN/WUw$++++$qnK))K1++++X",
">1@o%dn({~ptR{{p1++++++O+7i~I4+++@+o+8BSK3+++X@$",
"q0#+$4ySY{{QQQ}k7@+++@+++o%ya>O+++++@+7n3+++X4yw",
"Hq%++o#>qaF~~Ay2%@+++++@++O$8%O+++++2$+>@++o>BIW",
"}x:++++O+@>52&+O++++++++++++$@+++++&e>OO++++wnW)",
"!A:O++++++oOO+++++++++++++++++++++o7P7++++o;vS)W",
"u1+++o++O@++++@+++$@+O+++O+$@+++++@y}y%+++O9BWIV",
"$O+++-71@O+++++++#q7;$O+$17:+++++O:A[L3+++&iVAt2",
"X+.$8dzt7=+O++++o>yksq4qap1O++++=O=45q7@++9Bw<@X",
"+O>uB!{Ip02$O+++O7yPQRR}l>O++O$7q1ooo++@X$9:+o++",
"++eBIQ)QQHy0:+++#euQ)W!f1.+++%evqq:O+++++@+O+++@",
"O*vH{WWWQ)Hq=++O>yMKMy8;++++>idgh0q&++++++++@+++",
".1dSR(QW[c7$o+@o8ue92%OO++++ednR)tq2++++++++++++",
"++&5yA/)z7@+@+O%w7=@o++++++O>ndY)Hqq%+++++++@++@",
"++Oo@:9p2+O@++O##oo++++++++++wdzQ[Ir2++++++@+++@",
"+++++o+#++++++@++++@+O+%2$++.*ddERy7&+++@+++++++",
"%$+X+++++++++++++@+o+:wt9#+++O9dAp2$O++@71$O++++",
"wq4>$+++++++@++++o+>wS}Iq%++++%My>++++o2dr8:++o*",
"AWPx4X+++++++++O#,en~)W)t%++++.4;o++++@y~Yt4+X$y",
"))))0++++++@+X%4yNnincW)a&o+++X++++++.2A()l= @eV",
"WRE}r+++++O+++&>;=&%2iz)a;O+++.++++++@e~([r#X8nz",
"Ak750$+ =7=O++OXOOOo@yit7%o++O&4@+++O1SW)K4++1iv",
"nr:o@@ &tap5%OO+++++O>1%+++o@5fr>+++@yY))a:O+o%r",
"3q%++X$y(}Q(h5&@+OO+++OO++X;y[)f7@+O:dS~Ur%+++O@",
"O%$+X$eBY~YY)]Kaq1&$$+++X$5c(QQEr,++@$2wy8@+++++",
"+O++X$2247yBW)}Rkrq7;+X@2v(Q(({a9%+++X +$&+++++@",
"++O+$OOOOo&dYHy03>%@+O*eBF(QWQh0:O@+++++++++@+++",
"o@<71O++++O2q2&$+oX+++2einz!QPr2++++++++++++++++",
"2yAt1O+++++@@+O++@+++o O#,5wue7+++++++++++++++X$",
"!QEr>O+++++++++++++O@31;=+ +$*$+++++++@+++++O$3a",
"QQEr:X+++@+++++++Oo+8B~p9>O+++++++$+@+@+++X%8f~W",
"WQ~t;XX@X+X@+@+++%1egF)We8@+X++++17+X++X+-qZY)WW"
};
