/* XPM */
static xpm_row_t const snake_down[] = {
/* columns rows colors chars-per-pixel */
"48 48 199 2 ",
"   c #030303",
".  c #040804",
"X  c #060609",
"o  c #03090A",
"O  c #0B0C0D",
"+  c #120C0D",
"@  c #0E0E15",
"#  c #130F12",
"$  c #0C1513",
"%  c #141516",
"&  c #19161A",
"*  c #181918",
"=  c #1C1A1B",
"-  c #14221B",
";  c #18241F",
":  c #1D1C22",
">  c #202126",
",  c #363537",
"<  c #06461A",
"1  c #02511F",
"2  c #0B4F25",
"3  c #014F2A",
"4  c #015C25",
"5  c #04552C",
"6  c #0D542A",
"7  c #025B2B",
"8  c #075829",
"9  c #13562E",
"0  c #015633",
"q  c #025D33",
"w  c #035E3A",
"e  c #115C32",
"r  c #22542D",
"t  c #04652A",
"y  c #04612D",
"u  c #0C6B2D",
"i  c #05742F",
"p  c #08762F",
"a  c #026130",
"s  c #066536",
"d  c #0A6732",
"f  c #0C6D34",
"g  c #156534",
"h  c #1C6437",
"j  c #146B35",
"k  c #196B37",
"l  c #1F6638",
"z  c #1D6938",
"x  c #0C7432",
"c  c #087436",
"v  c #077832",
"b  c #0B7B34",
"n  c #0D7B3A",
"m  c #147136",
"M  c #137A35",
"N  c #107739",
"B  c #1C753B",
"V  c #167C3C",
"C  c #187938",
"Z  c #226639",
"A  c #22683A",
"S  c #30633C",
"D  c #23723C",
"F  c #257C3F",
"G  c #347D37",
"H  c #4E542F",
"J  c #4A5630",
"K  c #664828",
"L  c #3E3C47",
"P  c #1C7746",
"I  c #316F49",
"U  c #2B7042",
"Y  c #2D7148",
"T  c #367349",
"R  c #454548",
"E  c #43514A",
"W  c #4C4750",
"Q  c #4C5654",
"!  c #535759",
"~  c #436B4D",
"^  c #4A6E53",
"/  c #576D5E",
"(  c #457959",
")  c #5A5E61",
"_  c #576263",
"`  c #696E6F",
"'  c #717479",
"]  c #BF1E11",
"[  c #AA2816",
"{  c #B22414",
"}  c #843A21",
"|  c #DB110A",
" . c #C11D10",
".. c #E50D07",
"X. c #E10E08",
"o. c #F30603",
"O. c #FF0000",
"+. c #0D843B",
"@. c #158739",
"#. c #1C843B",
"$. c #19953F",
"%. c #22833E",
"&. c #238F3C",
"*. c #358037",
"=. c #368239",
"-. c #388338",
";. c #22923E",
":. c #219D3D",
">. c #27AE39",
",. c #29AC3C",
"<. c #158641",
"1. c #1A8B45",
"2. c #1D9242",
"3. c #1E9248",
"4. c #2F894F",
"5. c #3B8845",
"6. c #279842",
"7. c #259B43",
"8. c #23954A",
"9. c #24984A",
"0. c #2B9D4A",
"q. c #2BA444",
"w. c #2BAB44",
"e. c #2EA54A",
"r. c #34A746",
"t. c #33AD45",
"y. c #33AB4A",
"u. c #2FB541",
"i. c #39B647",
"p. c #36BC47",
"a. c #37B14A",
"s. c #3AB54C",
"d. c #38B848",
"f. c #39AA54",
"g. c #3AB451",
"h. c #38B951",
"j. c #43825B",
"k. c #4A895E",
"l. c #4C9651",
"z. c #479459",
"x. c #498C63",
"c. c #528D67",
"v. c #54936A",
"b. c #569F70",
"n. c #748B79",
"m. c #6C987D",
"M. c #59A869",
"N. c #5DA479",
"B. c #68B26B",
"V. c #62AB79",
"C. c #74BE77",
"Z. c #3EC44F",
"A. c #3FC551",
"S. c #41C752",
"D. c #75C178",
"F. c #77C37A",
"G. c #7AB391",
"H. c #828A88",
"J. c #88988F",
"K. c #938F98",
"L. c #949399",
"P. c #90A59C",
"I. c #87B799",
"U. c #9B9CA2",
"Y. c #A29EA5",
"T. c #9DB3A7",
"R. c #A4ABA8",
"E. c #AFBDB9",
"W. c #B6B9BB",
"Q. c #95C6AE",
"!. c #9BC6AB",
"~. c #A5CBB4",
"^. c #A9C7BA",
"/. c #AED9BB",
"(. c #BAB2C0",
"). c #B9CDC1",
"_. c #ADD0C2",
"`. c #BAD6CA",
"'. c #BFDBD0",
"]. c #C5C8CB",
"[. c #C6D9CD",
"{. c #C8CDD3",
"}. c #C9D8D7",
"|. c #D5D5DA",
" X c #CBE5D8",
".X c #D2E0DC",
"XX c #DADAE4",
"oX c #DBE5E6",
"OX c #DFF2E7",
"+X c #E2E5E5",
"@X c #E5E0E9",
"#X c #E2ECEB",
"$X c #E7F3ED",
"%X c #E5EAF3",
"&X c #F4EBF6",
"*X c #EBF4F7",
"=X c #F7F7F7",
"-X c #F6FDFB",
";X c #FEFFFE",
/* pixels */
"A A A A A A A A A A A A A A A A A A A A A A A A A A A A A A A A A A A A A A A A A A A A A A A A ",
"A A A A A A A A A A A A A A A A A A A A A A A A A A A A A A A A A A A A A A A A A A A A A A A A ",
"A A A A A A A A A A A A A A A A Z A A A A l j j d P x.T A l A A A A A A A A A A A A A A A A A A ",
"A A A A A A A A A A A A A A A A A A A A k c c V i b.$X$X_.c.U A A A A A A A A A A A A A A A A A ",
"A A A A A A A A Z A A A A A A A A A A j x <.$.;.$.V.-X;X;X$XI.Y A A A A A A A A A A A A A A A A ",
"A A A A A A A A A A A A A A A A A A k p <.8.0.r.u.z.` K.XX;X$X!.U z A A A A A A A A A A A A A A ",
"A A A A A A A A A A A A A A A A A A N @.7.w.t.a.A.=.- & L U.*X#XI.U A A A A A A A A h A A A A A ",
"A A A A A A A A A A A A A A A A A C n 3.q.a.s.s.A.=.* O + : U.=X Xx.A Z A A A A A g 5 e A A A A ",
"A A A A A A A A A A A A A A A A A b <.0.y.s.s.g.A.=.; * * X L |.%XG.z h h l A l 2 3 5 5 z A A A ",
"A A A A A A A A A A A A A A A A F v 3.e.s.s.i.g.Z.=.; * = * @ K.%X^.z U h U l 6 5 0 0 0 l A A A ",
"A A A A A A A A A A A A A A A A %.b 9.y.g.s.i.s.A.*.. O = = X ) {.`.Z Z h h h 7 0 0 0 5 k Z A A ",
"A A A A A A A A A A A A A A A A %.b 8.a.s.s.s.a.Z.l._ * = = X E `.}.A Z Z U g 5 q w q a z A A A ",
"A A A A A A A A A A A A A A A A %.b 9.y.s.i.i.h.>.F.+XL.+ = . Q }.'.Z h A A u 4 q s q d z A A A ",
"A A A A A A A A A A A A A A A A F i 9.y.i.d.i.h.>.F.;X=X, # o ' XX`.Z U A A f 4 q q y k A A A A ",
"A A A A A A A A A A A A A A A A A p 1.q.t.d.i.g.>.F.=X;X!   > W.+X!.A A A A C t 4 4 j A A A A A ",
"A A A A A A A A A A A A A A A A A m +.7.r.s.s.g.>.F.;X+X*   ' #X}.V.A A A A D C u F A A A A A A ",
"A A A A A A A A A A A A A A A A A k x $.;.e.r.f.t.B.W.` % ) {.|.~.U Z Z Z A A A U A A A A A A A ",
"A A A A A A A A A A A A A A A A A A g x #.6.:.0.q.l.! L J.|.|.^.x.A Z Z A A A A l z A A A A A A ",
"A A A A A A A A A Z A A A A A A A Z A u u M #.1.@.l.R.{.|.{.R.( Z A A A A A A A A Z Z H } ] ..o.",
"A A Z A A A A A A A A A A A A A A Z Z Z 8 q d u 1 c.).].R.J.T A A A A A A A A A A H [ o.O.O.O.O.",
"A A A A A A A A A A A A A A A A A A A A A e 6 3 < S n.n./ I Z Z A A A A A A A A K | O.O.O.O.O.O.",
"A A A A A A A A A A A A A A A A A A A A Z h 9 2 < r ~ ~ T D Z Z A A A A A A A J X.O.O.O.O.O.O.O.",
"A A A A A A A A A A A A A A A A A A A A A A A A A A A A A A A A A A A A A A A { o.O.O.O.O.O.O.O.",
"A A A A A A A A A A A A A A A A A A A A A A A A A A A A A A A A A A A A A A z o.O.O.O.O.O.O.O.O.",
"A A A A A A A Z A A A A A A A A A A A A A A A A A A Z A A Z A A A A A A A A A O.O.O.O.O.O.O.O.O.",
"A A A A A A A A A A A A A A A A A A A A A A A A A A Z P A A A A A A A A A A A O.O.O.O.O.O.O.O.O.",
"A A A A A A A A A A A A A A A A A A A A A z j g u Y j.Y Z h A A A A A A A A A o.O.O.O.O.O.O.O.O.",
"A A A A A A A A A A A A A A A A A A A A A j c m t 4.~.I.c.U A A A A A A A A A { o.O.O.O.O.O.O.O.",
"A A A A A A A A A A A A A A A A A A A z j b +.#.v V.;X-XOX~.j.A A A A A A A A H ..O.O.O.O.O.O.O.",
"A A A A A A A A A A A A A A A A A A A f N 1.2.q.$.M.[.&X;X;X'.v.A A A A A A A A K | O.O.O.O.O.O.",
"A A A A A A A A A A A A A A A A A A m b 2.0.w.y.Z.5., R K.%X-X Xz.Z A A A A A A A H [ o.O.O.O.O.",
"A A A A A A A A A A A A A A A A A B n 2.7.t.i.s.A.*.$ X & ! |.*X/.T A A A A A A A Z Z H }  ...o.",
"A A A A A A Z A A A A A A A A A D M +.0.y.a.s.s.S.-.; & +   ` &XoXN.z Z A A e 5 e A A A A A A A ",
"A A A A A A A A A A A A A A A A D p 1.e.a.s.s.s.Z.G ; = = O : (.%XQ.A A A z 0 3 3 2 l A A A A A ",
"A A Z A A A A A A A A A A A A A U b 9.y.h.s.i.g.p.G $ % = = X ' XX_.A A A l 0 0 0 5 6 A A A A A ",
"A A A A A A A A A A A A A A A A <.b 9.y.s.s.i.h.Z.l.; X = = . Q {.'.A A A j 5 0 0 0 8 h A A A A ",
"A A A A A A A A A A A A A A A A %.b 9.y.s.i.i.g.,.B.P.R + = . E {.}.Z Z Z z 7 q w q 4 g A A A A ",
"A A A A A A A A A A A A A A A A %.b 9.y.s.i.i.g.>.F.;X|.= = o _ .X`.Z h A z d q s q 7 u A A A A ",
"A A A A A A A A A A A A A A A A D p 3.e.s.i.i.g.,.F.-X;XW O @ L.oX_.h U A A k y q q 4 p A A A A ",
"A A A A A A A A A A A A Z A A A A x @.q.t.i.i.g.>.F.-X;XH   L |.oXG.U e A A A B 4 4 t C A A A A ",
"A A A A A A A A A A A A A A A A A m b ;.,.y.a.f.,.C.@XR.O : U.+X`.k.A A A A A A B j C D A A A A ",
"A A A A A A A A A A A A A A A A A A j @.&.6.q.f.,.M.K., R Y.XX`.I.A A A A A A A A A A A A A A A ",
"A A A A A A A A A A A A Z A A A A A h u M #.&.9.;.j._ G.].+X].P.A A A A A A A A A A A A A A A A ",
"A A A A A A A A A A A A Z A A A A A A g y f N V u v.|.+X].E.m.Z A A A A A A A A A A A A A A A A ",
"A A A A A A A A A A A A Z A A A A A A A g 8 8 t < j.T.P.H.^ A A A A A A A A A A A A A A A A A A ",
"A A A A A A A A A A A A A A A A A A A A Z Z 9 1 < r ^ ~ ~ A A A A A A A A A A A A A A A A A A A ",
"A Z A A A A A A A A A A A Z A A A A A A Z Z Z Z Z Z Z Z A A A A A A A A A A A A A A A A A A A A ",
"A A A A A A A A A A A A A A A A A A A A A A Z Z Z Z G Z A A A A A A A A A A A A A A A A A A A A "
};
