/* XPM */
static xpm_row_t const game_fruit[] = {
/* columns rows colors chars-per-pixel */
"48 48 154 2 ",
"   c None",
".  c #030000",
"X  c #0B0201",
"o  c #000C00",
"O  c #000B0B",
"+  c #150000",
"@  c #1B0000",
"#  c #1F0A05",
"$  c #1C0909",
"%  c #001800",
"&  c #1A1313",
"*  c #240000",
"=  c #2D0000",
"-  c #230B0B",
";  c #360000",
":  c #3B0000",
">  c #3E0B04",
",  c #251105",
"<  c #321707",
"1  c #3E1707",
"2  c #331010",
"3  c #3B1919",
"4  c #002600",
"5  c #002900",
"6  c #152304",
"7  c #023100",
"8  c #003E00",
"9  c #352A05",
"0  c #2F3900",
"q  c #373000",
"w  c #152121",
"e  c #430000",
"r  c #4A0000",
"t  c #520000",
"y  c #5C0000",
"u  c #560A00",
"i  c #431E09",
"p  c #511100",
"a  c #511A00",
"s  c #431616",
"d  c #5C1E1E",
"f  c #640000",
"g  c #6B0000",
"h  c #6C0C00",
"j  c #750000",
"k  c #7C0000",
"l  c #7D0803",
"z  c #720808",
"x  c #781616",
"c  c #40270E",
"v  c #5D2A0D",
"b  c #5E340F",
"n  c #64200A",
"m  c #632D0F",
"M  c #6B320F",
"N  c #733411",
"B  c #7B3B12",
"V  c #552525",
"C  c #652424",
"Z  c #6B2424",
"A  c #712626",
"S  c #762B2B",
"D  c #792A2A",
"F  c #004200",
"G  c #005600",
"H  c #294500",
"J  c #225000",
"K  c #006500",
"L  c #016A00",
"P  c #116000",
"I  c #126A00",
"U  c #037200",
"Y  c #0E7000",
"T  c #007E00",
"R  c #7F4313",
"E  c #830000",
"W  c #8B0000",
"Q  c #810D03",
"!  c #890B03",
"~  c #940000",
"^  c #9A0000",
"/  c #980F00",
"(  c #9F1D1D",
")  c #A40000",
"_  c #AC0100",
"`  c #B30000",
"'  c #BC0000",
"]  c #813413",
"[  c #823C12",
"{  c #892F2F",
"}  c #8B3434",
"|  c #953737",
" . c #913939",
".. c #9C3838",
"X. c #A93C3C",
"o. c #C30000",
"O. c #CC0000",
"+. c #D40000",
"@. c #DB0000",
"#. c #E40000",
"$. c #EB0000",
"%. c #F40000",
"&. c #FF0000",
"*. c #FE0C0C",
"=. c #FD1313",
"-. c #FE1C1C",
";. c #C52E2E",
":. c #D43B3B",
">. c #FE2424",
",. c #FE2C2C",
"<. c #FB3232",
"1. c #FE3A3A",
"2. c #8F4A16",
"3. c #944516",
"4. c #AA4F18",
"5. c #B0531A",
"6. c #C2591C",
"7. c #BA4040",
"8. c #C94C4C",
"9. c #D54D4D",
"0. c #DD4848",
"q. c #D25050",
"w. c #D95151",
"e. c #D85A5A",
"r. c #FF4B4B",
"t. c #E65555",
"y. c #E65D5D",
"u. c #EB5D5D",
"i. c #F75555",
"p. c #FD5555",
"a. c #FD5A5A",
"s. c #E26262",
"d. c #EE6060",
"f. c #F56464",
"g. c #FE6565",
"h. c #F66868",
"j. c #FE6B6B",
"k. c #058600",
"l. c #008A00",
"z. c #019200",
"x. c #0D9500",
"c. c #009C00",
"v. c #00A600",
"b. c #01AA00",
"n. c #00B500",
"m. c #01BC00",
"M. c #00C400",
"N. c #01CB00",
"B. c #00D300",
"V. c #00DC00",
"C. c #00E400",
"Z. c #00EB00",
"A. c #00F500",
"S. c #00FE00",
/* pixels */
"            o T n.l.K F o                                                                       ",
"              z.S.A.C.B.n.U 5                                                                   ",
"              K S.S.S.S.S.Z.n.K o                                                               ",
"              4 C.S.V.B.S.S.S.Z.z.4                                                             ",
"              . z.S.C.m.N.A.S.S.S.b.5       X < < X                                             ",
"                7 B.S.C.m.N.A.S.S.S.b.%     , M [ c                                             ",
"                  L C.S.Z.m.M.A.S.S.C.G     < 3.6.N                                             ",
"                  . z.A.S.A.M.n.A.S.M.z.7   , [ 5.m                                             ",
"                X * = x.S.S.S.N.b.Z.S.m.L o # B 5.v . + : y x {  .} S d 2 X                     ",
"            X r y j W u Y A.S.S.C.b.M.A.n.6 : [ 2.n W @.%.%.%.-.<.i.h.f.t.7.A -                 ",
"          * ) #.@.W j k h 0 c.S.S.A.N.n.V.P > ] 2.l %.&.&.&.&.&.*.*.>.r.j.h.u.9.Z .             ",
"        ; ' %.&.&.#._ l j g a H k.N.A.Z.V.k.9 [ v y &.&.&.&.&.&.&.&.&.*.>.p.j.g.d...$           ",
"      = ` &.&.&.&.&.%.+._ ~ E g p q J I U F 6 c 1 W &.&.%.&.&.&.&.&.&.&.&.=.1.g.j.f.X.-         ",
"    X E &.&.&.&.&.&.&.&.%.@.+.O.o.' ) ) / l l ! _ #.&.&.&.&.&.&.&.&.&.&.&.&.*.,.a.g.j...$       ",
"    e +.&.&.&.&.&.&.&.&.&.&.&.&.&.&.&.&.&.&.%.%.&.&.&.&.&.&.&.&.&.&.&.&.&.&.&.&.,.p.j.f.S       ",
"  . k %.&.&.&.&.&.&.&.&.&.&.&.&.&.&.&.&.&.&.&.&.&.&.&.&.&.&.&.&.&.&.&.&.&.&.&.&.&.,.a.j.w.s     ",
"  * ) &.&.&.&.&.&.&.&.&.&.&.&.&.&.&.&.&.&.&.&.&.&.&.&.&.&.&.&.&.&.&.&.&.&.&.&.&.&.&.1.g.g.| X   ",
". r ` &.&.&.&.&.&.&.&.&.&.&.&.&.&.&.&.&.&.&.&.&.&.&.&.&.&.&.&.&.&.&.&.&.&.&.&.&.&.&.=.r.j.q.3   ",
"@ f ' &.&.&.&.&.&.&.&.&.&.&.&.&.&.&.&.&.&.&.&.&.&.&.&.&.&.&.&.&.&.&.&.&.&.&.&.&.&.&.&.,.g.u.S   ",
"= g ' &.&.&.&.&.&.&.&.&.&.&.&.&.&.&.&.&.&.&.&.&.&.&.&.&.&.&.&.&.&.&.&.&.&.&.&.&.&.&.&.*.r.j.X.. ",
": j ' &.&.&.&.&.&.&.&.&.&.&.&.&.&.&.&.&.&.&.&.&.&.&.&.&.&.&.&.&.&.&.&.&.&.&.&.&.&.&.&.&.<.j.8.$ ",
"r k ' &.&.&.&.&.&.&.&.&.&.&.&.&.&.&.&.&.&.&.&.&.&.&.&.&.&.&.&.&.&.&.&.&.&.&.&.&.&.&.&.&.>.a.e.s ",
"t k _ &.&.&.&.&.&.&.&.&.&.&.&.&.&.&.&.&.&.&.&.&.&.&.&.&.&.&.&.&.&.&.&.&.&.&.&.&.&.&.&.&.*.r.s.d ",
"y j ) %.&.&.&.&.&.&.&.&.&.&.&.&.&.&.&.&.&.&.&.&.&.&.&.&.&.&.&.&.&.&.&.&.&.&.&.&.&.&.&.&.&.1.s.C ",
"y j ^ #.&.&.&.&.&.&.&.&.&.&.&.&.&.&.&.&.&.&.&.&.&.&.&.&.&.&.&.&.&.&.&.&.&.&.&.&.&.&.&.&.&.,.y.Z ",
"y k ~ @.&.&.&.&.&.&.&.&.&.&.&.&.&.&.&.&.&.&.&.&.&.&.&.&.&.&.&.&.&.&.&.&.&.&.&.&.&.&.&.&.&.>.t.V ",
"r k W o.&.&.&.&.&.&.&.&.&.&.&.&.&.&.&.&.&.&.&.&.&.&.&.&.&.&.&.&.&.&.&.&.&.&.&.&.&.&.&.&.&.-.0.V ",
"e k k _ &.&.&.&.&.&.&.&.&.&.&.&.&.&.&.&.&.&.&.&.&.&.&.&.&.&.&.&.&.&.&.&.&.&.&.&.&.&.&.&.&.-.0.3 ",
": k k ~ $.&.&.&.&.&.&.&.&.&.&.&.&.&.&.&.&.&.&.&.&.&.&.&.&.&.&.&.&.&.&.&.&.&.&.&.&.&.&.&.&.=.;.& ",
"= k k W +.&.&.&.&.&.&.&.&.&.&.&.&.&.&.&.&.&.&.&.&.&.&.&.&.&.&.&.&.&.&.&.&.&.&.&.&.&.&.&.&.*.( O ",
"+ g E j _ &.&.&.&.&.&.&.&.&.&.&.&.&.&.&.&.&.&.&.&.&.&.&.&.&.&.&.&.&.&.&.&.&.&.&.&.&.&.&.&.$.z   ",
". y W k ~ $.&.&.&.&.&.&.&.&.&.&.&.&.&.&.&.&.&.&.&.&.&.&.&.&.&.&.&.&.&.&.&.&.&.&.&.&.&.&.&.@.e   ",
"  : E k E o.&.&.&.&.&.&.&.&.&.&.&.&.&.&.&.&.&.&.&.&.&.&.&.&.&.&.&.&.&.&.&.&.&.&.&.&.&.&.&.` w   ",
"  @ j W j ~ %.&.&.&.&.&.&.&.&.&.&.&.&.&.&.&.&.&.&.&.&.&.&.&.&.&.&.&.&.&.&.&.&.&.&.&.&.&.$.j     ",
"  . y W j k ' &.&.&.&.&.&.&.&.&.&.&.&.&.&.&.&.&.&.&.&.&.&.&.&.&.&.&.&.&.&.&.&.&.&.&.&.&.O.;     ",
"    ; k W k W $.&.&.&.&.&.&.&.&.&.&.&.&.&.&.&.&.&.&.&.&.&.&.&.&.&.&.&.&.&.&.&.&.&.&.&.&.W       ",
"    + f W k j ) %.&.&.&.&.&.&.&.&.&.&.&.&.&.&.&.&.&.&.&.&.&.&.&.&.&.&.&.&.&.&.&.&.&.&.@.:       ",
"      e W E k j O.%.&.&.&.&.&.&.&.&.&.&.&.&.&.&.&.&.&.&.&.&.&.&.&.&.&.&.&.&.&.&.&.&.&.E         ",
"      + f W k k k @.&.&.&.&.&.&.&.&.&.&.&.&.&.&.&.&.&.&.&.&.&.&.&.&.&.&.&.&.&.&.%.&.O.=         ",
"        : W k E j W @.&.&.&.&.&.&.&.&.&.&.&.&.&.&.&.&.&.&.&.&.&.&.&.&.&.&.&.&.&.&.%.g           ",
"        X y W k E j ~ #.&.&.&.&.&.&.&.&.&.&.&.&.&.&.&.&.&.&.&.&.&.&.&.&.&.&.&.&.&.^ @           ",
"          * k E k k j W @.&.&.&.&.&.&.&.&.&.&.&.&.&.&.&.&.&.&.&.&.&.&.&.&.&.&.&.o.X             ",
"            : W E k k k W O.&.&.&.&.&.&.&.&.&.&.&.&.&.&.&.&.&.&.&.&.&.&.%.&.&.@.:               ",
"            X e W E k k j W _ #.&.&.&.&.&.%.&.&.&.&.&.&.&.&.&.&.&.&.&.&.&.&.O.e                 ",
"              X e k W E k j j ~ ' #.&.&.&.&.&.&.&.&.&.&.&.&.&.&.%.&.&.&.&.) *                   ",
"                . ; g W W W E k W ) ' O.O.o.' o.@.%.&.&.&.&.&.&.&.&.&.@.E :                     ",
"                    @ r g j k k j y e : e ; ; ; r k ` +.#.$.%.$.#.o.~ e .                       ",
"                        @ = ; ; = * .               + e y j j g y * .                           "
};
