/* XPM */
static xpm_row_t const snake_left[] = {
/* columns rows colors chars-per-pixel */
"48 48 199 2 ",
"   c #030303",
".  c #040804",
"X  c #060609",
"o  c #03090A",
"O  c #0B0C0D",
"+  c #120C0D",
"@  c #0E0E15",
"#  c #130F12",
"$  c #0C1513",
"%  c #141516",
"&  c #19161A",
"*  c #181918",
"=  c #1C1A1B",
"-  c #18241F",
";  c #1D1C22",
":  c #202126",
">  c #363537",
",  c #06461A",
"<  c #02511F",
"1  c #0B4F25",
"2  c #014F2A",
"3  c #015C25",
"4  c #04552C",
"5  c #0D542A",
"6  c #025B2B",
"7  c #075829",
"8  c #13562E",
"9  c #015633",
"0  c #025D33",
"q  c #035E3A",
"w  c #115C32",
"e  c #22542D",
"r  c #304035",
"t  c #04652A",
"y  c #04612D",
"u  c #0C6B2D",
"i  c #05742F",
"p  c #08762F",
"a  c #026130",
"s  c #066536",
"d  c #0A6732",
"f  c #0C6D34",
"g  c #156534",
"h  c #1C6437",
"j  c #146B35",
"k  c #196B37",
"l  c #1F6638",
"z  c #1D6938",
"x  c #0C7432",
"c  c #087436",
"v  c #077832",
"b  c #0B7B34",
"n  c #0D7B3A",
"m  c #147136",
"M  c #137A35",
"N  c #107739",
"B  c #1C753B",
"V  c #167C3C",
"C  c #187938",
"Z  c #226639",
"A  c #2E623E",
"S  c #22683A",
"D  c #30633C",
"F  c #23723C",
"G  c #257C3F",
"H  c #347D37",
"J  c #4E542F",
"K  c #4A5630",
"L  c #664828",
"P  c #3E3C47",
"I  c #3E4541",
"U  c #1C7746",
"Y  c #2B7042",
"T  c #2D7148",
"R  c #367349",
"E  c #454548",
"W  c #43514A",
"Q  c #4C4750",
"!  c #4C5654",
"~  c #535759",
"^  c #436B4D",
"/  c #4A6E53",
"(  c #576D5E",
")  c #457959",
"_  c #5A5E61",
"`  c #576263",
"'  c #696E6F",
"]  c #717479",
"[  c #BF1E11",
"{  c #AA2816",
"}  c #B22414",
"|  c #843A21",
" . c #DB110A",
".. c #C11D10",
"X. c #E50D07",
"o. c #E10E08",
"O. c #F30603",
"+. c #FF0000",
"@. c #0D843B",
"#. c #158739",
"$. c #1C843B",
"%. c #19953F",
"&. c #22833E",
"*. c #238F3C",
"=. c #358037",
"-. c #368239",
";. c #388338",
":. c #22923E",
">. c #219D3D",
",. c #27AE39",
"<. c #29AC3C",
"1. c #158641",
"2. c #1A8B45",
"3. c #1D9242",
"4. c #1E9248",
"5. c #2F894F",
"6. c #3B8845",
"7. c #279842",
"8. c #259B43",
"9. c #23954A",
"0. c #24984A",
"q. c #2B9D4A",
"w. c #2BA444",
"e. c #2BAB44",
"r. c #2EA54A",
"t. c #34A746",
"y. c #33AD45",
"u. c #33AB4A",
"i. c #39B647",
"p. c #37B14A",
"a. c #3AB54C",
"s. c #38B848",
"d. c #39AA54",
"f. c #3AB451",
"g. c #38B951",
"h. c #43825B",
"j. c #4A895E",
"k. c #4C9651",
"l. c #479459",
"z. c #498C63",
"x. c #528D67",
"c. c #54936A",
"v. c #569F70",
"b. c #748B79",
"n. c #6C987D",
"m. c #59A869",
"M. c #5DA479",
"N. c #68B26B",
"B. c #62AB79",
"V. c #74BE77",
"C. c #3EC44F",
"Z. c #3FC551",
"A. c #41C752",
"S. c #75C178",
"D. c #77C37A",
"F. c #7AB391",
"G. c #7CC982",
"H. c #828A88",
"J. c #88988F",
"K. c #938F98",
"L. c #949399",
"P. c #90A59C",
"I. c #87B799",
"U. c #9B9CA2",
"Y. c #9DB3A7",
"T. c #A4ABA8",
"R. c #AFBDB9",
"E. c #B6B9BB",
"W. c #95C6AE",
"Q. c #9BC6AB",
"!. c #A5CBB4",
"~. c #A9C7BA",
"^. c #B8C0BE",
"/. c #AED9BB",
"(. c #BAB2C0",
"). c #B9CDC1",
"_. c #ADD0C2",
"`. c #BAD6CA",
"'. c #BFDBD0",
"]. c #C5C8CB",
"[. c #C6D9CD",
"{. c #C8CDD3",
"}. c #C9D8D7",
"|. c #D5D5DA",
" X c #CBE5D8",
".X c #D2E0DC",
"XX c #DADAE4",
"oX c #DBE5E6",
"OX c #DFF2E7",
"+X c #E2E5E5",
"@X c #E5E0E9",
"#X c #E2ECEB",
"$X c #E7F3ED",
"%X c #E5EAF3",
"&X c #F4EBF6",
"*X c #EBF4F7",
"=X c #F7F7F7",
"-X c #F6FDFB",
";X c #FEFFFE",
/* pixels */
"S S S S S S S S S S S S S S S S S S S S Z F Z Z Z F Z Z Z S S S S S S S S S S S Z S S S S S S S ",
"S S S S S S S S S S S S S S S S S S S S Z F Z Z Z Z Z Z S S S S S S S S S S S S S S S S S S S S ",
"S S S S S S S S S S S S S S S S S S Z R ^ / e , 1 8 h Z S S S S S S S S S S S S S S S S S S S S ",
"S S S S S S S S S S S S S S S S S A / H.P.Y.) < t 5 7 g S S S S S S S S S S S S S S S S S S Z S ",
"S S S S S S S S S S S S S S Z Z Z b.R.{.@X}.c.u V N f y g Z Z S S S S S S S S S S S S S S S S S ",
"S S S S S S S S S S S S S S S Y P.].XX].H._ h.>.9.*.$.M u k S S S S S S S S S S S S S S S S S S ",
"S S S S S S S S S S S S S S S F.`.XXT.K > H.m.w.d.t.7.*.#.u S S S S S S Z S S S S S S S S S S S ",
"S S S l F C m F S S S S S S z.`.oXU.; O E.#XV.<.f.t.t.<.:.#.m S S S S S S S S S S S S S S S S S ",
"S S S S C t 3 3 m S S S Z Y F.XX|.P   J ;X-XD.,.f.a.a.y.7.#.x S S S S S S S S S S S S Z S S S S ",
"S S S S p 3 6 0 t k S S Z Y ~.XXL.@ O Q ;X=XD.,.f.i.s.a.u.3.v F S S S S S S S S S S S S S S S S ",
"S S S S u 6 0 s 0 d S S Y w `.XX` X = = |.;XG.,.f.i.i.a.u.0.b G S S S S S S S S S S S S S S S S ",
"S S S S g 4 q q 0 y k S w Y '.'.W . * + E P.N.<.f.i.i.a.u.0.n $.S S S S S S S S S S S S S S S S ",
"S S S S z 6 4 9 9 4 k S S S `.{.! . = = O - 6.Z.a.a.a.a.u.0.b $.S S S S S S S S S S S S S S S S ",
"S S S S l 5 4 9 9 4 z S S S _.oX] X = = % $ H A.f.s.a.f.u.9.@.Y S Z S S S S S S S S S S S S S S ",
"S S S S S l 5 2 2 4 l S S S W.%X(.; O = * - ;.C.f.i.a.p.r.3.v B S S S S S S S S S S S S S S S S ",
"S S S S S S S w 4 w S S S S M.oX&X'   + % - ;.A.a.a.a.u.0.@.M S S S S S S S S S S S S S S S S S ",
"O.X...| J S S S Z S S S S S R /.&XXX~ & X $ =.A.a.s.y.w.3.c B S S S S S S S Z S S S S S S S S S ",
"+.+.+.+.O.{ J S S S S S S S z z.[.-X%XK.Q r 6.g.y.e.q.3.b m S S S S S S S S S S S S S S S S S S ",
"+.+.+.+.+.+. .L S S S S S S S S c.'.;X;X&X[.m.3.7.7.#.n f S S S S S S S S S S S S S S S S S S Z ",
"+.+.+.+.+.+.+. .J S S S S S S S S h.!.OX-X;XM.b :.@.c j l S S S S S S S S S S S S S S S S S S S ",
"+.+.+.+.+.+.+.O.} S S S S S S S S S S c.I.!.5.s m c j S S S S S S S S S Z S S S S S S S S S S S ",
"+.+.+.+.+.+.+.+.O.S S S S S S S S S S l T z.U s j k z S S S S S S S S S S S S S S S S S S S S S ",
"+.+.+.+.+.+.+.+.+.S S S S S S S S S S S l S S S l S S S S S S S S S S S S S S S S S S S S S S S ",
"+.+.+.+.+.+.+.+.+.S S S S S S S S S S S S S S S S S S S S S S S S S S S S S S S S S S S S S S S ",
"+.+.+.+.+.+.+.+.O.S S S S S S S S S S S S S S S S S S S S S S S S S S S S S S S S S S S S S S S ",
"+.+.+.+.+.+.+.O.} S S S S S S S S S S S S S Z S S S S S S S S S S S S S S S S S S S S S S S S S ",
"+.+.+.+.+.+.+.o.K S S S S S S S S S F R ^ ^ 8 , 1 8 S S S S S S S S S S S S S S S S S S S S S S ",
"+.+.+.+.+.+. .L S S S S S S S S S S D ( b.b.A , 2 4 8 l S S S S S S S S S S S S S S S S S S S S ",
"+.+.+.+.O.{ J Z S S S S S S S S Z R J.T.].).x.1 f s 6 w l S S S S S S S S S S S S S S S S S S S ",
"O.X.[ | J Z S S S S S S S S S S ) T.{.|.{.T.j.#.2.$.M u d Z S S S S S S S S S S S S S S S S S S ",
"S S S S S S S S S S S S S S S ) ^.|.|.J.r ~ k.w.q.7.:.$.x j S S Z S S S S S S S S S S S S S S S ",
"S S S S S S S S S S S S S S ;.!..X{.~ = ' E.N.y.d.t.u.%.*.x z S S S S S S S S S S S S S S S S S ",
"S S S S S S B m C F S S S S n. X+X] . * +X;XD.,.f.a.a.y.8.@.M S S S S S S S S S S S S S S S S S ",
"S S S S S k 3 3 t M S S S S Q.oXE.:   ~ ;X=XD.,.f.i.a.y.w.2.i S S S S S S S S S S S S S S S S S ",
"S S S S k y 0 a 3 f S S S S _.oX] X % > =X;XD.,.g.i.s.i.u.4.x G S S S S S S S S S S S S S S S S ",
"S S S S d 0 s 0 3 u S S S l }.}.! . * + L.+XD.<.f.i.i.a.u.0.b &.S S S S S S S S S S S S S S S S ",
"S S S k a 0 q 0 6 g S S S S }.`.W X = = * ( k.C.f.i.s.a.u.9.b &.S S S S S S S S S S S S S S S S ",
"S S S z 4 9 9 9 4 h S S S S `.{._ X = = O . =.Z.p.i.a.f.u.0.@.$.S S S S S S S S S S S S S S S S ",
"S S S k 9 9 9 4 7 S S S z h ~.%XK.@ * = * - -.Z.f.i.a.a.u.3.v Y S S S S S S S S S S S S S S S S ",
"S S S l 4 4 2 1 l S l l Y h F.%X|.P X * & - -.C.f.a.a.u.q.1.b S S S S S S S S S S S S S S S S S ",
"S S S l w 7 w S S S S S S S z. X;XU.; O O * -.Z.a.i.u.w.0.n V S S S S S S S S S S S S S S S S S ",
"S S S S S S S S S S S S S S Y I.#X*XU.P * $ -.Z.p.y.t.7.#.x S S S S S S S S S S S S S S S S S S ",
"S S S S S S S S S S S S S S z Y Q.$X;X|.L.' l.e.t.w.9.2.v k S S S S S S S S S S S S S S S S S S ",
"S S S S S S S S S S S S S S S S Y I.*X;X;X;XB.%.7.%.@.c k S S S S S S S S S S S S S S S S S S S ",
"S S S S S S S S S S S S S S S S S Y x._.$X$Xv.i n c f k S S S S S S S S S S S S S S S S S S S S ",
"S S S S S S S S S S S S S S S S S S l S R z.U s j j z Z S S S S S S S S S S S S S S S S S S S S ",
"S S S S S S S S S S S S S S S S S S S S Y l S S S S Z S S S S S S S S S S S S S S S S S S S S S ",
"S S S S S S S S S S S S S S S S S S S S S S S S S S S S S S S S S S S S S S S S S S S S S S S S "
};
