/* XPM */
static xpm_row_t const snake_right[] = {
/* columns rows colors chars-per-pixel */
"48 48 198 2 ",
"   c #030303",
".  c #040804",
"X  c #060609",
"o  c #03090A",
"O  c #0B0C0D",
"+  c #120C0D",
"@  c #0E0E15",
"#  c #130F12",
"$  c #0C1513",
"%  c #141516",
"&  c #19161A",
"*  c #181918",
"=  c #1C1A1B",
"-  c #14221B",
";  c #18241F",
":  c #1D1C22",
">  c #202126",
",  c #363537",
"<  c #06461A",
"1  c #02511F",
"2  c #0B4F25",
"3  c #014F2A",
"4  c #015C25",
"5  c #04552C",
"6  c #0D542A",
"7  c #025B2B",
"8  c #075829",
"9  c #13562E",
"0  c #015633",
"q  c #025D33",
"w  c #035E3A",
"e  c #115C32",
"r  c #22542D",
"t  c #304035",
"y  c #04652A",
"u  c #04612D",
"i  c #0C6B2D",
"p  c #05742F",
"a  c #08762F",
"s  c #026130",
"d  c #066536",
"f  c #0A6732",
"g  c #0C6D34",
"h  c #156534",
"j  c #1C6437",
"k  c #146B35",
"l  c #196B37",
"z  c #1F6638",
"x  c #1D6938",
"c  c #0C7432",
"v  c #087436",
"b  c #077832",
"n  c #0B7B34",
"m  c #0D7B3A",
"M  c #147136",
"N  c #137A35",
"B  c #107739",
"V  c #1C753B",
"C  c #167C3C",
"Z  c #187938",
"A  c #226639",
"S  c #2E623E",
"D  c #22683A",
"F  c #30633C",
"G  c #23723C",
"H  c #257C3F",
"J  c #347D37",
"K  c #4E542F",
"L  c #4A5630",
"P  c #664828",
"I  c #3E3C47",
"U  c #1C7746",
"Y  c #316F49",
"T  c #2B7042",
"R  c #2D7148",
"E  c #367349",
"W  c #454548",
"Q  c #43514A",
"!  c #4C4750",
"~  c #4C5654",
"^  c #535759",
"/  c #436B4D",
"(  c #4A6E53",
")  c #576D5E",
"_  c #457959",
"`  c #5A5E61",
"'  c #576263",
"]  c #696E6F",
"[  c #717479",
"{  c #BF1E11",
"}  c #AA2816",
"|  c #B22414",
" . c #843A21",
".. c #DB110A",
"X. c #C11D10",
"o. c #E30D08",
"O. c #F30603",
"+. c #FF0000",
"@. c #0D843B",
"#. c #158739",
"$. c #1C843B",
"%. c #19953F",
"&. c #22833E",
"*. c #238F3C",
"=. c #358037",
"-. c #368239",
";. c #388338",
":. c #22923E",
">. c #219D3D",
",. c #27AE39",
"<. c #29AC3C",
"1. c #158641",
"2. c #1A8B45",
"3. c #1E9248",
"4. c #2F894F",
"5. c #3B8845",
"6. c #279842",
"7. c #259B43",
"8. c #23954A",
"9. c #24984A",
"0. c #2B9D4A",
"q. c #2BA444",
"w. c #2BAB44",
"e. c #2EA54A",
"r. c #34A746",
"t. c #33AD45",
"y. c #33AB4A",
"u. c #2FB541",
"i. c #39B647",
"p. c #37B14A",
"a. c #3BB34A",
"s. c #3AB24E",
"d. c #3BB64D",
"f. c #38B848",
"g. c #39AA54",
"h. c #3AB350",
"j. c #3BB552",
"k. c #38B951",
"l. c #43825B",
"z. c #4A895E",
"x. c #4C9651",
"c. c #479459",
"v. c #498C63",
"b. c #528D67",
"n. c #54936A",
"m. c #569F70",
"M. c #748B79",
"N. c #6C987D",
"B. c #59A869",
"V. c #68B26B",
"C. c #62AB79",
"Z. c #74BE77",
"A. c #3EC44F",
"S. c #3FC551",
"D. c #41C752",
"F. c #75C178",
"G. c #77C37A",
"H. c #7AB391",
"J. c #828A88",
"K. c #88988F",
"L. c #938F98",
"P. c #949399",
"I. c #90A59C",
"U. c #87B799",
"Y. c #9B9CA2",
"T. c #A29EA5",
"R. c #99A2A7",
"E. c #9DB3A7",
"W. c #A4ABA8",
"Q. c #AFBDB9",
"!. c #B6B9BB",
"~. c #9BC6AB",
"^. c #A5CBB4",
"/. c #A9C7BA",
"(. c #B2D0BD",
"). c #BAB2C0",
"_. c #B9CDC1",
"`. c #ADD0C2",
"'. c #BAD6CA",
"]. c #BFDBD0",
"[. c #C5C8CB",
"{. c #C6D9CD",
"}. c #C8CDD3",
"|. c #C9D8D7",
" X c #D5D5DA",
".X c #CBE5D8",
"XX c #DADAE4",
"oX c #DBE5E6",
"OX c #E2E5E5",
"+X c #E5E0E9",
"@X c #E2ECEB",
"#X c #E7F3ED",
"$X c #E5EAF3",
"%X c #F4EBF6",
"&X c #EBF4F7",
"*X c #F7F7F7",
"=X c #F6FDFB",
"-X c #FEFFFE",
/* pixels */
"D D D D D D D D D D D D D D D D D D D D D D D D D D D D D D D D D D D D D D D D D D D D D D D D ",
"D D D D D D D D D D D D D D D D D D D D D D D D D A D D D D D D D D D D D D D D D D D D D D D D ",
"D D D D D D D D D D D D D D D D A D D D D D D D D D D D D D D D D D D D D D D D D D D D D D D D ",
"D D D D D D D D D D D D D D D D D D D D D D D D D D D D D D D D D D D D D A D D D D D D D D D D ",
"D D D D D D D D A D D D D D D D D D D D D D D D D D D A D D D D D D D D D D D D D D D D D D D D ",
"D D D D D D D D D D D D D D D D D D D D D D D D D D D D D D D D D D D D D D D D D D D D D D D D ",
"D D D D D D D D D D D D D D D D D D D D D D D D D D D D D D D D D D D D D D A D D D D D D D D D ",
"D D D D D D D D D D D D D D D D D D D D D D D D D D D D D D D D D D D D D D D D D D D D D D D A ",
"D D D D D D D D D D D D D D D D D A D A D D D D D D D D D D D D D D D D D D D D D D D D D D D D ",
"D D D D D D D D D D D D D D D D D D D A D D D D D D D D D D D D D D D D D D D D D D D D D D D D ",
"D D D D D D D D D D D D D D D D D D D A A D D D D D D D D D D D D D D D D D D D D D D D D D D D ",
"D D D D D D D D D D D D D D D D D D D D D D D D D D D D D D D D D D D D D D D D D D D D D D D D ",
"D D D D D D D D D D D D D D D D D D D D D D D D D D D D D D D D D D D D D D D D D D D D D D D D ",
"D D D D D D D D D D D D D D D D D D D D D D D D D D D D D D D D D D D D D D D D D D D D D D D D ",
"D D D D D D D D D D D D D D D D D D D D D D D D D D D D D D D A D D D D D D D D D D D D D D D D ",
"D D D D D D D D D D D D D D D D D D D D D D D D D D D D D D D D D D D D D D D D D D D D D D D D ",
"D D A D D D D A D D 2.&.&.H G D D D D D D D D D D D D D D D D D A D T $.&.&.T x D D D D D D D D ",
"D D D D D D D l n a c n n b b m V D D D D D D D D D D D D D D x c p b n m n b b #.D D D D D D D ",
"D D D D D l g m #.3.8.9.9.8.2.1.m M D D D D D D D D D D A D h v @.2.8.8.7.9.3.2.m c V D D D D D ",
"D D D D h i #.:.q.y.y.y.y.y.e.7.%.n g D D D D D D D D D A i n $.7.e.y.y.t.t.e.0.3.#.b l D D D D ",
"D D D h u N :.q.w.i.a.a.d.d.a.y.7.7.m k A D D D D D D A 8 i $.>.q.i.p.a.d.d.d.y.w.7.#.a k D D D ",
"D D z 8 g $.7.y.a.f.f.a.d.d.d.s.y.6.2.m k x D D D D j e d N *.r.f.a.f.i.a.d.d.d.y.w.3.U v x D D ",
"D D 9 8 M *.r.s.i.i.f.i.i.i.i.i.i.q.7.@.v k D D D D 9 6 h C 6.r.d.i.f.f.a.i.i.i.d.t.q.3.v k D D ",
"D A 2 7 C 3.g.j.h.h.k.h.s.s.s.a.s.r.7.$.M k D D D D 2 5 g 2.0.g.h.h.k.h.h.d.h.s.d.a.r.:.#.h D D ",
"D D < 3 i <.<.,.,.,.,.<.D.D.D.D.A.A.3.a p f D D D D < < 4 #.,.<.,.,.,.<.A.A.D.S.D.D.u.#.p v D D ",
"D D r _ n.;.B.Z.F.F.G.V.;.-.;.;.=.5.B.C.4.U D D D D r S b.z.x.V.G.G.G.G.x.J ;.;.J J g.C.m.U D D ",
"D D ( E. X! H.+X*X*X-XI.; $ ; ; $ t |.-X/.l.D D D D / M.(.W.~ !.-X*X-XOX) . ; ; * - [ =X#Xv.D D ",
"D D / W.+XJ., !.-X-X X! O * ; % o ! %X=XU.R D D D D / M.[.}.I ] OX-X*XP.* O & & @ & P.-X#XE D D ",
"A A Y J.[.[.K + W W = # = = = + * P.-X@Xb.D D D D A E ) W. XK.= = ^ , + & = & & + I  X-X(.D D D ",
"D A T ( /.+XT.:   X & = = & @   ^ $X-X^.D D D D D A F Y K.[. X`     + = = = & X * R.-X#Xn.D D D ",
"D D A r H.'.XXY.W $ X . X X : ] |.=X].l.D D D D D D D D E W. X}.[ > X . X   @ I Y.&X@XU.D D D D ",
"D D A A 9 I.[.+X XP.` Q ~ [ !.%X*X{.n.D D D D D D D D A A _ /. X@X!.[ ~ Q ` L.XX-X@X~.R D D D D ",
"D D D D D R U.'.oXoXXX'.}.XX$XoX(.c.x D D D D D D D D D D D l.^..XoXoX|.'. X$XoX.XH.R D D D D D ",
"D A D D D D A _ U./.'.{.].`.H.H.E D D D D D D D D D D D D D D R N.~.'.].{.'.Q.H.v.R D D D D D D ",
"D D D D D D D D j D D D D D U j D D D D D D D D D D D D D D D D D D j D D D D D U D D D D D D D ",
"D D D D D D D D D D D D D D A A D D D D D D D D D D D D D D D D D D D D D D D D x x D D D D D D ",
"D D D D D D D D D D D D D T j z D D D D D D D D D D D D D D D D D D D D D D D D D D D D D D D D ",
"D D D D D D D D D D x x j j x z D D D D D D D D D D D D D D D D D D D D D D D D D D D D D D D D ",
"D D D D D D D D D l f q 5 0 0 e D D D D D D D D D D D D D D D D T Z c i k j z D D D D D D D D D ",
"D D D D D D D D l y q q 0 0 3 5 z D D L | O.+.+.O.| L D D D D D B 4 4 7 4 5 6 x D D D D D D D D ",
"D D D D D D D V 4 u d w 0 0 3 e D D P o.O.+.+.+.+.O.o.P D D D D k 4 s q q 0 5 2 D D D D D D D D ",
"D D D D D D D k 4 s q q 0 3 6 A A K ..+.+.+.+.+.+.+.+...K D D D V 4 q d w 0 0 3 e D D D D D D D ",
"D D D D D D D Z y 4 u 4 7 6 A D A } +.+.+.+.+.+.+.+.+.+.} D D D D M u q q 0 0 5 5 A D D D D D D ",
"D D D D D D D G N g i h j A D D K O.+.+.+.+.+.+.+.+.+.+.O.K D D D D l f 7 0 5 5 e D D D D D D D ",
"D D D D D D D D D D D D D D D D  .+.+.+.+.+.+.+.+.+.+.+.+. .D D D D D D j x x z z D D D D D D D ",
"D D D D D D D D D D D D D D D D X.+.+.+.+.+.+.+.+.+.+.+.+.{ D D D D D D D D x D D D D D D D D D ",
"D D D D D D D D D D D D D D D D o.+.+.+.+.+.+.+.+.+.+.+.+.o.D D D D D D D D D D D D D D D D D D ",
"D D D D D D D D D D D D D D D D O.+.+.+.+.+.+.+.+.+.+.+.+.O.D D D D D D D D D D D D D D D D D D "
};
