/* XPM */
static xpm_row_t const snake_up[] = {
/* columns rows colors chars-per-pixel */
"48 48 199 2 ",
"   c #030303",
".  c #040804",
"X  c #060609",
"o  c #03090A",
"O  c #0B0C0D",
"+  c #120C0D",
"@  c #130F12",
"#  c #0C1513",
"$  c #141516",
"%  c #19161A",
"&  c #181918",
"*  c #1C1A1B",
"=  c #14221B",
"-  c #18241F",
";  c #1D1C22",
":  c #202126",
">  c #363537",
",  c #41393D",
"<  c #06461A",
"1  c #02511F",
"2  c #0B4F25",
"3  c #014F2A",
"4  c #015C25",
"5  c #04552C",
"6  c #0D542A",
"7  c #025B2B",
"8  c #075829",
"9  c #13562E",
"0  c #015633",
"q  c #025D33",
"w  c #035E3A",
"e  c #115C32",
"r  c #22542D",
"t  c #304035",
"y  c #04652A",
"u  c #04612D",
"i  c #0C6B2D",
"p  c #05742F",
"a  c #08762F",
"s  c #026130",
"d  c #066536",
"f  c #0A6732",
"g  c #0C6D34",
"h  c #156534",
"j  c #1C6437",
"k  c #146B35",
"l  c #196B37",
"z  c #1F6638",
"x  c #1D6938",
"c  c #0C7432",
"v  c #087436",
"b  c #077832",
"n  c #0B7B34",
"m  c #0D7B3A",
"M  c #147136",
"N  c #137A35",
"B  c #107739",
"V  c #1C753B",
"C  c #167C3C",
"Z  c #187938",
"A  c #226639",
"S  c #2E623E",
"D  c #22683A",
"F  c #30633C",
"G  c #23723C",
"H  c #257C3F",
"J  c #347D37",
"K  c #4E542F",
"L  c #4A5630",
"P  c #664828",
"I  c #3E3C47",
"U  c #1C7746",
"Y  c #316F49",
"T  c #2B7042",
"R  c #2D7148",
"E  c #367349",
"W  c #454548",
"Q  c #43514A",
"!  c #4C4750",
"~  c #4C5654",
"^  c #535759",
"/  c #436B4D",
"(  c #4A6E53",
")  c #576D5E",
"_  c #457959",
"`  c #5A5E61",
"'  c #696E6F",
"]  c #717479",
"[  c #AA2816",
"{  c #B22414",
"}  c #843A21",
"|  c #DB110A",
" . c #C11D10",
".. c #E50D07",
"X. c #E10E08",
"o. c #F30603",
"O. c #FF0000",
"+. c #0D843B",
"@. c #158739",
"#. c #1C843B",
"$. c #19953F",
"%. c #22833E",
"&. c #238F3C",
"*. c #358037",
"=. c #368239",
"-. c #388338",
";. c #22923E",
":. c #219D3D",
">. c #27AE39",
",. c #29AC3C",
"<. c #158641",
"1. c #1A8B45",
"2. c #1D9242",
"3. c #1E9248",
"4. c #2F894F",
"5. c #3B8845",
"6. c #279842",
"7. c #259B43",
"8. c #23954A",
"9. c #24984A",
"0. c #2B9D4A",
"q. c #2BA444",
"w. c #2BAB44",
"e. c #2EA54A",
"r. c #34A746",
"t. c #33AD45",
"y. c #33AB4A",
"u. c #2FB541",
"i. c #39B647",
"p. c #37B14A",
"a. c #3AB54C",
"s. c #38B848",
"d. c #39AA54",
"f. c #3AB451",
"g. c #38B951",
"h. c #43825B",
"j. c #4A895E",
"k. c #4C9651",
"l. c #479459",
"z. c #498C63",
"x. c #528D67",
"c. c #54936A",
"v. c #569F70",
"b. c #748B79",
"n. c #6C987D",
"m. c #59A869",
"M. c #68B26B",
"N. c #62AB79",
"B. c #74BE77",
"V. c #3EC44F",
"C. c #3FC551",
"Z. c #41C752",
"A. c #75C178",
"S. c #77C37A",
"D. c #7AB391",
"F. c #828A88",
"G. c #88988F",
"H. c #938F98",
"J. c #949399",
"K. c #90A59C",
"L. c #87B799",
"P. c #9B9CA2",
"I. c #A29EA5",
"U. c #99A2A7",
"Y. c #9DB3A7",
"T. c #A4ABA8",
"R. c #AFBDB9",
"E. c #B6B9BB",
"W. c #95C6AE",
"Q. c #9BC6AB",
"!. c #A5CBB4",
"~. c #A9C7BA",
"^. c #B8C0BE",
"/. c #AED9BB",
"(. c #B0D6BE",
"). c #BAB2C0",
"_. c #B9CDC1",
"`. c #ADD0C2",
"'. c #BAD6CA",
"]. c #BFDBD0",
"[. c #C5C8CB",
"{. c #C6D9CD",
"}. c #C8CDD3",
"|. c #C9D8D7",
" X c #D5D5DA",
".X c #CBE5D8",
"XX c #DADAE4",
"oX c #DBE5E6",
"OX c #DFF2E7",
"+X c #E2E5E5",
"@X c #E5E0E9",
"#X c #E2ECEB",
"$X c #E7F3ED",
"%X c #E5EAF3",
"&X c #F4EBF6",
"*X c #EBF4F7",
"=X c #F7F7F7",
"-X c #F6FDFB",
";X c #FEFFFE",
/* pixels */
"D D D D D D D D D D D D D D D D D D o.O.O.O.O.O.O.O.O.O.O.O.O.o.D D D D D D D D D D D D D D D D ",
"D D D D D D D D D D D D D D D D D D X.O.O.O.O.O.O.O.O.O.O.O.O...D D D D D D D D D D D D D D D D ",
"D D D D D D D D x D D D D D D D D D  .O.O.O.O.O.O.O.O.O.O.O.O. .D D D D D D D D D D D D D D D D ",
"D D D D D D D D z x l x D D D D D D } O.O.O.O.O.O.O.O.O.O.O.O.} D D D D D D z D D D D D D D D D ",
"D D D D D D D e 5 5 5 7 f l D D D D K o.O.O.O.O.O.O.O.O.O.O.o.K D D A j i f g N G D D D D D D D ",
"D D D D D D z 5 3 0 0 w 7 y M D D D D [ O.O.O.O.O.O.O.O.O.O.[ A D A 6 7 8 y 4 y Z D D D D D D D ",
"D D D D D D D e 3 0 0 w d q 4 V D D D K | O.O.O.O.O.O.O.O.| K A D 6 5 5 q q u 4 k D D D D D D D ",
"D D D D D D D D 6 5 0 q q s 4 k D D D D P X.o.O.O.O.O.O.X.P D D e 3 0 0 w w q 4 V D D D D D D D ",
"D D D D D D D D z 6 7 4 7 4 y Z D D D D D L { o.O.O.o.{ L D D z 5 3 0 0 w q y M D D D D D D D D ",
"D D D D D D D D D D j h f c Z G D D D D D D x D D D D D D D D D e 0 0 5 7 f l D D D D D D D D D ",
"D D D D D D D D D D D D D x D D D D D D D D D D D D D D D D D D z x x j x D D D D D D D D D D D ",
"D D D D D D D D D D D D D D D D D D D D D D D D D D D D D D D D D D z D D D D D D D D D D D D D ",
"D D D D D D D D D D A A T e D D D D D D D D D D D D D D D D D D j T j D D D D A D D D D D D D D ",
"D D D D D D D D D D A U A T z e D D D D D D D D D D D D D D D D j U A A D D D A D D D D D D D D ",
"D D D D D D T l.D.W.'.}.].'.Y.D.Y z D D D D D D D D D D D D D E D.D.`.].{.'.~.L.j.A D D D D D D ",
"D D D D D T L..X#X%X X'.}.XXoX.X!.z.D D D D D D D D D D D D l./.oX%XXX}.'.XXoX+X(.L.G D D D D D ",
"D D D D R Q.+X-XXXH.` Q ~ ] E.+X|.~._ S D D D D D D D D D c.{.=X&X).] ^ Q ` J. XoX{.K.A A A A A ",
"D D D D L.%X*XP.I @ X . . X : ] }. XT.Y D D D D D D D D h.].-X X' ; X X . . $ I J.+X[.n.A A A A ",
"D D D c.*X;XU.& X % * * * $     `  X}.G.F D D D D D D D !.;X%X^   O * * * % O   * T.XXE.( J A A ",
"D D D (.;X X, + % * & & + > ^ * & G. XT.) E D D D D D c.OX;XH.% + * * * $ * W W O W [.[.b./ A A ",
"D D E *X;XJ.% O % % O * J.-X;X+X' W  X^.b./ D D D D R L.-X&X! X @ * $ O W  X;X;XE.> F.@XT./ G A ",
"D D x.$X-X] & = - - . ` +X;X=X;XE.~ T._.b./ D D D A z.~.;X{.t # - = # - K.;X=X-X@XD.^ {.T.( A A ",
"D D U v.N.d.=.-.-.-.J k.S.S.B.S.M.k.l.j.F r A D D D U 4.N.m.5.*.-.-.J 5.M.S.A.A.B.v._ c.h.r A A ",
"D D d p @.w.C.V.V.V.V.V.,.,.,.,.w.w.@.1 < < D D D D p y +.$.g.Z.Z.Z.Z.Z.u.>.>.>.>.,.:.i 1 < A A ",
"D D k C 6.r.y.f.f.a.f.s.f.g.f.f.d.0.1.g 2 2 D D D D k g 1.6.t.a.a.f.f.a.f.g.f.f.f.d.8.C u 2 D D ",
"D D k b $.6.t.a.s.s.a.s.s.a.i.i.r.6.#.f 5 9 D D D D k g +.8.r.i.s.a.s.i.i.a.i.i.r.q.;.N 8 9 D D ",
"D D x v <.8.t.t.f.a.a.a.i.s.s.i.r.2.n q 9 j D D D D z k v 1.0.t.a.f.s.a.a.i.s.i.y.0.%.g 0 A D D ",
"D D D l v @.6.e.y.a.a.a.a.a.t.w.;.%.i e z D D D D D D z k m 2.6.y.p.a.s.a.a.p.t.q.&.N 7 h D D D ",
"D D D D h b @.8.0.e.t.t.y.y.q.6.&.c i D D D D D D D D D x c n $.9.e.y.y.y.y.e.q.;.@.i h D D D D ",
"D D D D D l n m 1.3.9.9.9.3.1.@.c h D D D D D D D D D D D D M m +.3.8.8.9.8.2.@.N g x A D D D D ",
"D D D D D D x C n a n n n b a c x D D D D D D D D D D D D D A V N n b n m n c p M D A A D D D D ",
"D D D D D D D D D H H H 1.H D D D D D D D D D D D D D D D D D D D G H %.%.%.G D D D D D D D D D ",
"D D D D D D D D D D D D D D D D D D D D D D D D D D D D D D D D D D D D D D D D D D D D D D D D ",
"D D D D D D D D D D D D D D D D D D D D D D D D D A D D D D D D D D D D D D D D D D D D D D D D ",
"D D D D D D D D D D D D D D D A D D D D D D D D D D D D A D D D D D D D D D D D D D D D D A D D ",
"D D D D D D D D D D D D D D D D D D D D D D D D D D D D D D D D D D D D D D D D D D D D D D D D ",
"D D D D D D D D D D D D D D D D D D D D D D D D D D D D D D D D D D D D D D D D D D D D D D D D ",
"D D D D D D D D D D D D D D D D D D D D D D D D D D D D D D D D D D D D D D D D D D D D D D D D ",
"D D D D D D D D D D D D D D D D D D D D D D D D D D D D D D D D D D D D D D D D D D D D D D D D ",
"D D D D A D D D D D D D D D D D D D D D D A D D D D D D D D D D D D D D D D A D D D D D D D D D ",
"D D D D D D D D D D D D D D D D D D D D D D D D D D D D D D D D D D D D D D D D D D D D A D D D ",
"D D D D D D D D D D D A D D D D D D D D D D D D D D A D D D D D D D D D D D D D D D D D D D D D ",
"D D D D D D D D D D D D D D D D D D D D D D D D D D D D D D D D D D D D D D D D D D D D D D D D ",
"D D D D D D D D D D D D D D D D D D D D D D D D D D D D D D D D D D D D D D D D D D D D D D D D ",
"D D A D D D D D D D D D D D D D D A D D D D D D D D D D D D D D D D D D D D D D D D D D D D D D ",
"D D D D D D D D D D D D D D D D D D D D D D D D D D D D D D D D D D D D D D D D D D D D D D D D ",
"D D D D D D D D D D D D D D D D D D D D D D D D D D D D D D D D D D A D D D D D D D D D D D D D ",
"D D D D D D D A D D D D D D D D D D D D D D D D D D D D D D D D D D D D D A D D D D D D D D D D "
};
