/* XPM */
static xpm_row_t const wall_xpm[] = {
/* columns rows colors chars-per-pixel */
"48 48 35 1 ",
"  c #285F2A",
". c #2A612B",
"X c #2A632E",
"o c #2B632E",
"O c #2B642F",
"+ c #2C642F",
"@ c #2B6430",
"# c #2C6430",
"$ c #2E6733",
"% c #2E6735",
"& c #2E6834",
"* c #2F6836",
"= c #306B38",
"- c #306B39",
"; c #316C3A",
": c #316D3A",
"> c #326E3D",
", c #336F3E",
"< c #33703E",
"1 c #34713F",
"2 c #357140",
"3 c #357241",
"4 c #357242",
"5 c #367343",
"6 c #377545",
"7 c #377646",
"8 c #387747",
"9 c #397748",
"0 c #397849",
"q c #3A784A",
"w c #3B7B4D",
"e c #3E7F52",
"r c #3F8053",
"t c #3F8154",
"y c #418357",
/* pixels */
"yyyyyyyyyyyyyyyyyyye81=&**18yyyyyyyyyyyyyyyyyyyy",
"yyyyyyyyyyyyyyyyyyye81=&&=18eyyyyyyyyyyyyyyyyyyy",
"yyyyyyyyyyyyyyyyyyye81*%&&18eyyyyyyyyyyyyyyyyyyy",
"yyyyyyyyyyyyyyyyyyye81=*&=10eyyyyyyyyyyyyyyyyyyy",
"yyyyyyyyyyyyyyyyyyye8,=%*=18eyyyyyyyyyyyyyyyyyyy",
"yyyyyyyyyyyyyyyyyyye92=%$=18eyyyyyyyyyyyyyyyyyyy",
"yyyyyyyyyyyyyyyyyyye91=*$=18eyyyyyyyyyyyyyyyyyyy",
"yyyyyyyyyyyyyyyyyyye91=**=>8eyyyyyyyyyyyyyyyyyyy",
"yyyyyyyyyyyyyyyyyytr0<=&*=10eyyyyyyyyyyyyyyyyyyy",
"yyyyyyyyyyyyyyyyyyyr02=&*=18eyyyyyyyyyyyyyyyyyyy",
"yyyyyyyyyyyyyyyyyyyr8<=*&=20eyyyyyyyyyyyyyyyyyyy",
"yyyyyyyyyyyyyyyyyyyy02=*&=20yyyyyyyyyyyyyyyyyyyy",
"yyyyyyyyyyyyyyyyyyyr92=*=*28eyyyyyyyyyyyyyyyyyyy",
"ww999999009800888888<=*##*=>888888909998799997ww",
"==XXXXXX+OOX@XXXXXOX.. ....XXXoXXX#X%XooXX@XXX--",
"==XXXXXXX....XXXXXXXO@#+#oooXXXXXXX..  XXXXX@@-%",
"ww999997,==,-,797880899000009999972-,,-,7w7999ew",
"yyyyyyye737557eyyyyyyyyyyyyyyyyyye755257etyyyyty",
"yyyyyyye755257eyyyyyyyyyyyyyyyyyye743337eyyyyyyy",
"yyyyyyye735255tyyyyyyyyyyyyyyyyyte553347eyyyyyyy",
"yyyyyyye533355eyyyyyyyyyyyyyyyyyyt752557eyyyyyyy",
"yyyyyyyt753327etyyyyyyyyyyyyyyyyte552225eyyyyyyy",
"yyyyyyte543327tyyyyyyyyyyyyyyyyyyt535227eyyyyyyy",
"yyyyyyye733357eyyyyyyyyyyyyyyyyyte737255eyyyyyyy",
"yyyyyyye73<227etyyyyyyyyyyyyyyyyye522527yyyyyyyy",
"yyyyyyye557227ryyyyyyyyyyyyyyyyyye552227eyyyyyyy",
"yyyyyyye722257eyyyyyyyyyyyyyyyyyye825528eyyyyyyy",
"yyyyyyye825937etyyyyyyyyyyyyyyyyye822258eyyyyyyy",
"yyyyyyye9222>7eyyyyyyyyyyyyyyyyyye8211>8eyyyyyyy",
"yyyyyyye922257eyyyyyyyyyyyyyyyyyye825555eyyyyyyy",
"yyyyyyye922858yyyyyyyyyyyyyyyyyyye958188eyyyyyyy",
"ww999997>>===>99999000000000999998>=;>=>988890ww",
"--@XXXXXX X .XXXXXXXooXX#oooXXXXXX .  .oXXXXXX==",
"--XXX@XXXXX#XoXXXXXXX...X .oXXXXXX+o$oooXXooXX==",
"ww999999000999888887>=*$#**188988000080q8889000q",
"yyyyyyyyyyyyyyyyyyye82*=*=29yyyyyyyyyyyyyyyyyyyy",
"yyyyyyyyyyyyyyyyyyyy02=**=20eyyyyyyyyyyyyyyyyyyy",
"yyyyyyyyyyyyyyyyyyye02=&&=20eyyyyyyyyyyyyyyyyyyy",
"yyyyyyyyyyyyyyyyyyye01=*&=18eyyyyyyyyyyyyyyyyyyy",
"yyyyyyyyyyyyyyyyyyye82=&&=10eyyyyyyyyyyyyyyyyyyy",
"yyyyyyyyyyyyyyyyyyye71=&%=19eyyyyyyyyyyyyyyyyyyy",
"yyyyyyyyyyyyyyyyyyye81=&%=19eyyyyyyyyyyyyyyyyyyy",
"yyyyyyyyyyyyyyyyyyye81*&**19eyyyyyyyyyyyyyyyyyyy",
"yyyyyyyyyyyyyyyyyyye81=**=29eyyyyyyyyyyyyyyyyyyy",
"yyyyyyyyyyyyyyyyyyye01=&&=18eyyyyyyyyyyyyyyyyyyy",
"yyyyyyyyyyyyyyyyyyye02=&&=10eyyyyyyyyyyyyyyyyyyy",
"yyyyyyyyyyyyyyyyyyye71&&&*18eyyyyyyyyyyyyyyyyyyy",
"yyyyyyyyyyyyyyyyyyyy81=&&*10eyyyyyyyyyyyyyyyyyyy"
};
